<?xml version="1.0" standalone="no"?>
<!DOCTYPE svg PUBLIC "-//W3C//DTD SVG 20010904//EN"
 "http://www.w3.org/TR/2001/REC-SVG-20010904/DTD/svg10.dtd">
<svg version="1.0" xmlns="http://www.w3.org/2000/svg"
 width="300.000000pt" height="300.000000pt" viewBox="0 0 300.000000 300.000000"
 preserveAspectRatio="xMidYMid meet">
<metadata>
Created by potrace 1.10, written by Peter Selinger 2001-2011
</metadata>
<g transform="translate(0.000000,300.000000) scale(0.100000,-0.100000)"
fill="#111111" stroke="none">
<path d="M0 1500 l0 -1500 1500 0 1500 0 0 1500 0 1500 -1500 0 -1500 0 0
-1500z m1747 1186 c236 -52 441 -163 609 -331 147 -147 244 -303 304 -491 43
-136 55 -214 55 -379 0 -331 -110 -605 -339 -843 -236 -246 -535 -374 -876
-375 -348 0 -657 132 -893 383 -437 464 -447 1161 -25 1652 180 208 467 360
763 402 65 9 333 -2 402 -18z"/>
<path d="M1550 2613 c-55 -20 -68 -87 -24 -122 15 -12 35 -21 46 -21 27 0 68
44 68 73 0 44 -51 84 -90 70z"/>
<path d="M1232 2574 c-50 -34 -15 -124 48 -124 17 0 39 9 50 20 11 11 20 33
20 50 0 59 -67 90 -118 54z"/>
<path d="M1795 2530 c-26 -29 -24 -79 4 -102 32 -25 67 -23 96 7 30 30 31 54
4 89 -26 33 -77 36 -104 6z"/>
<path d="M985 2490 c-52 -19 -60 -88 -14 -122 54 -40 125 19 99 82 -13 32 -55
51 -85 40z"/>
<path d="M2080 2420 c-55 -13 -65 -93 -15 -126 20 -13 30 -14 59 -4 19 6 37
18 40 26 25 64 -21 120 -84 104z"/>
<path d="M727 2313 c-30 -34 -31 -70 -3 -97 32 -33 70 -33 101 -1 30 30 31 54
4 89 -24 31 -77 36 -102 9z"/>
<path d="M1420 2243 c-333 -52 -507 -152 -483 -277 6 -27 41 -70 80 -96 20
-13 22 -19 13 -55 -5 -22 -10 -66 -10 -99 0 -51 -6 -70 -55 -161 -32 -60 -55
-115 -55 -133 0 -33 26 -60 80 -82 28 -11 30 -16 30 -62 0 -27 -5 -80 -11
-118 -10 -60 -10 -73 4 -94 20 -29 87 -46 187 -46 81 0 76 12 85 -180 8 -138
19 -170 61 -170 36 0 59 14 122 76 102 101 255 191 437 258 55 21 106 45 113
54 19 25 14 59 -14 108 -17 28 -28 65 -31 103 -5 53 -1 72 36 171 57 152 74
241 69 365 -3 94 -6 108 -41 177 -61 124 -184 219 -328 253 -59 13 -225 18
-289 8z m332 -171 c184 -88 233 -263 147 -517 -33 -96 -48 -116 -75 -97 -9 5
-9 21 -1 57 19 96 -14 173 -89 206 -59 26 -108 19 -175 -27 -28 -19 -53 -34
-55 -34 -2 0 -4 14 -4 31 0 52 -21 107 -56 148 -33 38 -33 39 -11 45 12 4 68
10 125 13 89 5 105 9 117 27 22 30 18 72 -7 96 -45 41 -247 22 -401 -39 -74
-30 -77 -30 -121 -15 -25 9 -48 19 -51 24 -11 18 186 87 314 110 25 5 98 8
161 6 106 -2 120 -5 182 -34z m-495 -282 c23 -6 56 -23 74 -37 l32 -27 -7 -82
c-7 -97 0 -110 83 -143 77 -30 95 -27 149 23 26 24 57 48 70 55 21 11 22 10
22 -22 0 -35 -40 -107 -78 -141 -69 -60 27 -154 99 -97 23 18 26 18 69 2 44
-16 45 -17 51 -71 4 -30 9 -66 13 -80 6 -24 0 -28 -111 -80 -64 -30 -156 -80
-203 -111 -96 -64 -91 -66 -103 37 -5 47 -4 52 19 62 35 16 113 91 131 125 18
36 4 79 -33 96 -41 19 -54 13 -107 -44 -57 -63 -111 -85 -208 -85 l-58 0 1
117 1 117 -30 27 c-17 14 -36 28 -43 31 -8 2 -5 15 10 41 22 36 23 37 83 37
49 0 65 4 84 22 49 46 9 118 -66 118 l-39 0 5 43 c8 77 12 88 31 83 9 -3 36
-10 59 -16z"/>
<path d="M2273 2213 c-33 -27 -38 -64 -13 -96 26 -33 78 -37 103 -9 20 22 22
85 4 101 -27 21 -72 24 -94 4z"/>
<path d="M541 2084 c-27 -35 -27 -65 2 -92 48 -45 120 -16 120 48 0 67 -81 96
-122 44z"/>
<path d="M2411 1954 c-27 -34 -26 -54 0 -88 28 -36 83 -33 112 6 54 73 -56
153 -112 82z"/>
<path d="M437 1830 c-53 -42 -23 -130 44 -130 32 0 69 40 69 75 0 57 -68 90
-113 55z"/>
<path d="M2490 1680 c-29 -29 -26 -74 6 -99 59 -46 125 -6 114 69 -6 49 -82
68 -120 30z"/>
<path d="M392 1537 c-45 -48 -18 -117 46 -117 65 0 96 74 49 118 -30 28 -68
28 -95 -1z"/>
<path d="M2492 1397 c-44 -47 -13 -117 52 -117 64 0 92 74 46 120 -27 27 -71
26 -98 -3z"/>
<path d="M430 1250 c-35 -35 -25 -92 21 -115 73 -38 138 63 73 114 -34 26 -68
27 -94 1z"/>
<path d="M2411 1114 c-27 -34 -26 -54 0 -88 28 -36 83 -33 112 6 54 73 -56
153 -112 82z"/>
<path d="M552 987 c-46 -49 -20 -121 43 -121 69 0 99 71 50 119 -30 31 -65 32
-93 2z"/>
<path d="M2300 893 c-55 -20 -68 -87 -24 -122 15 -12 35 -21 46 -21 27 0 68
44 68 73 0 44 -51 84 -90 70z"/>
<path d="M755 780 c-53 -20 -60 -88 -13 -123 23 -17 31 -18 56 -8 39 16 57 55
42 92 -13 31 -55 50 -85 39z"/>
<path d="M2059 682 c-28 -23 -30 -73 -4 -102 36 -40 107 -15 121 42 4 21 0 33
-20 52 -30 31 -65 33 -97 8z"/>
<path d="M984 608 c-65 -31 -41 -128 32 -128 66 0 94 79 42 123 -23 19 -43 21
-74 5z"/>
<path d="M1820 557 c-56 -28 -48 -110 13 -131 67 -24 118 78 61 123 -31 24
-40 25 -74 8z"/>
<path d="M1252 520 c-54 -22 -49 -106 8 -130 23 -9 34 -9 59 4 38 20 48 54 27
94 -21 41 -48 50 -94 32z"/>
<path d="M1525 485 c-48 -47 -22 -115 44 -115 69 0 97 66 51 116 -30 31 -64
31 -95 -1z"/>
</g>
</svg>
