<?xml version="1.0" standalone="no"?>
<!DOCTYPE svg PUBLIC "-//W3C//DTD SVG 20010904//EN"
 "http://www.w3.org/TR/2001/REC-SVG-20010904/DTD/svg10.dtd">
<svg version="1.0" xmlns="http://www.w3.org/2000/svg"
 width="300.000000pt" height="300.000000pt" viewBox="0 0 300.000000 300.000000"
 preserveAspectRatio="xMidYMid meet">
<metadata>
Created by potrace 1.10, written by Peter Selinger 2001-2011
</metadata>
<g transform="translate(0.000000,300.000000) scale(0.100000,-0.100000)"
fill="#111111" stroke="none">
<path d="M0 1500 l0 -1500 1500 0 1500 0 0 1500 0 1500 -1500 0 -1500 0 0
-1500z m1755 1195 c343 -72 640 -285 816 -587 171 -293 210 -671 103 -995
-154 -464 -557 -784 -1051 -834 -529 -54 -1045 262 -1246 762 -63 157 -81 252
-81 444 -1 180 9 254 51 384 141 437 519 762 970 836 111 18 329 13 438 -10z"/>
<path d="M1531 2594 c-27 -35 -27 -59 4 -89 40 -41 92 -30 115 25 11 28 11 34
-7 58 -29 39 -83 42 -112 6z"/>
<path d="M1245 2575 c-30 -30 -31 -54 -4 -89 27 -34 77 -36 107 -3 28 29 28
57 1 91 -27 34 -71 35 -104 1z"/>
<path d="M1811 2534 c-27 -35 -27 -65 2 -92 46 -44 117 -14 117 48 0 65 -79
94 -119 44z"/>
<path d="M971 2474 c-27 -35 -26 -59 4 -89 27 -28 45 -31 78 -14 29 16 37 28
37 62 0 63 -80 90 -119 41z"/>
<path d="M2067 2412 c-24 -27 -21 -74 6 -100 29 -28 57 -28 91 -1 30 24 34 63
10 97 -20 28 -83 31 -107 4z"/>
<path d="M741 2314 c-27 -34 -27 -64 -1 -92 43 -46 120 -17 120 44 0 69 -78
101 -119 48z"/>
<path d="M2300 2227 c-35 -18 -48 -61 -29 -95 12 -21 23 -28 56 -30 33 -2 44
1 57 20 44 62 -17 139 -84 105z"/>
<path d="M1337 2154 c-57 -18 -152 -103 -163 -147 -9 -40 22 -81 65 -85 26 -3
38 3 64 31 18 19 42 39 54 46 34 18 95 13 133 -11 115 -70 190 -85 267 -53 83
35 162 127 147 172 -25 68 -78 71 -145 8 -62 -58 -90 -59 -179 -5 -104 63
-152 72 -243 44z"/>
<path d="M560 2100 c-26 -26 -26 -81 -2 -103 28 -25 87 -22 106 5 36 51 5 118
-54 118 -17 0 -39 -9 -50 -20z"/>
<path d="M2178 1990 c-43 -13 -151 -76 -199 -116 -66 -55 -89 -93 -99 -163 -9
-65 -40 -136 -68 -158 -11 -8 -49 -12 -102 -13 l-85 0 0 104 c0 90 -3 109 -21
133 -29 41 -87 65 -164 71 -63 4 -70 3 -94 -21 -17 -17 -26 -37 -26 -57 0 -28
5 -33 50 -52 59 -24 64 -45 21 -86 -17 -15 -38 -43 -49 -62 -21 -40 -48 -47
-111 -30 -59 16 -84 64 -106 204 -5 30 -20 52 -63 95 -68 67 -189 141 -243
148 -47 7 -79 -16 -79 -55 0 -14 34 -86 75 -159 47 -83 74 -141 70 -152 -9
-29 13 -122 45 -187 40 -82 120 -156 215 -200 41 -19 75 -41 75 -48 0 -8 3
-22 6 -30 5 -12 -12 -24 -70 -51 -43 -19 -82 -35 -89 -35 -7 0 -39 46 -72 101
-33 56 -71 109 -84 120 -31 25 -66 24 -91 -1 -39 -39 -28 -70 110 -290 72
-114 137 -211 146 -214 28 -11 51 -6 78 15 29 23 34 59 11 99 -8 14 -14 29
-15 33 0 9 122 67 140 67 26 0 20 -33 -12 -73 -73 -89 -72 -111 8 -187 76 -72
131 -95 224 -95 62 0 86 5 131 28 67 32 159 125 159 160 0 13 -21 51 -46 86
-43 58 -46 64 -31 79 15 15 22 13 87 -18 38 -19 70 -36 70 -38 0 -3 -9 -20
-21 -39 -23 -36 -20 -70 7 -97 16 -17 70 -21 91 -8 19 12 273 423 273 442 0
33 -39 70 -74 70 -40 0 -57 -17 -131 -138 -31 -50 -61 -95 -66 -98 -6 -3 -46
11 -89 32 -63 29 -80 42 -80 58 0 31 8 38 91 78 145 71 237 198 247 340 5 67
10 82 73 194 81 143 90 173 60 203 -22 22 -39 24 -83 11z m-498 -632 c0 -64
-25 -170 -56 -238 -24 -55 -90 -130 -113 -130 -24 0 -74 58 -105 123 -34 70
-66 194 -66 257 l0 30 170 0 170 0 0 -42z"/>
<path d="M2432 1967 c-45 -48 -17 -117 47 -117 47 0 71 24 71 73 0 63 -74 91
-118 44z"/>
<path d="M464 1848 c-22 -10 -44 -47 -44 -74 0 -23 47 -64 73 -64 38 0 70 32
70 69 0 53 -55 91 -99 69z"/>
<path d="M2510 1690 c-28 -28 -27 -84 2 -104 49 -34 118 -1 118 55 0 57 -80
89 -120 49z"/>
<path d="M423 1558 c-31 -15 -46 -58 -34 -91 21 -55 105 -56 130 -1 16 37 14
52 -14 79 -26 27 -47 30 -82 13z" />
<path d="M2516 1409 c-54 -42 -23 -123 46 -121 63 2 89 72 43 117 -30 30 -54
31 -89 4z"/>
<path d="M449 1262 c-33 -27 -30 -78 6 -109 69 -60 155 38 90 102 -29 30 -64
32 -96 7z"/>
<path d="M2430 1130 c-24 -24 -26 -67 -4 -98 20 -28 83 -31 107 -4 25 28 22
87 -5 106 -31 22 -74 20 -98 -4z"/>
<path d="M584 1010 c-11 -4 -27 -22 -34 -40 -35 -83 83 -141 125 -60 20 39 10
77 -26 95 -32 17 -36 17 -65 5z"/>
<path d="M2281 874 c-27 -35 -26 -59 4 -89 45 -46 118 -19 118 43 0 69 -80 99
-122 46z"/>
<path d="M740 768 c-27 -29 -25 -64 5 -93 30 -30 54 -31 89 -4 32 25 36 77 8
102 -26 24 -77 21 -102 -5z"/>
<path d="M2075 685 c-46 -46 -22 -115 41 -115 69 0 101 78 48 119 -35 27 -59
26 -89 -4z"/>
<path d="M1002 620 c-55 -23 -53 -100 3 -127 34 -16 36 -16 63 4 68 50 13 154
-66 123z"/>
<path d="M1817 552 c-39 -43 -7 -122 48 -122 29 0 75 40 75 65 0 20 -19 57
-34 67 -21 14 -73 8 -89 -10z"/>
<path d="M1272 530 c-49 -20 -54 -95 -7 -126 72 -47 142 50 80 111 -26 27 -37
29 -73 15z"/>
<path d="M1546 499 c-36 -29 -36 -80 1 -109 70 -55 151 42 88 105 -30 30 -54
31 -89 4z"/>
</g>
</svg>
