<?xml version="1.0" standalone="no"?>
<!DOCTYPE svg PUBLIC "-//W3C//DTD SVG 20010904//EN"
 "http://www.w3.org/TR/2001/REC-SVG-20010904/DTD/svg10.dtd">
<svg version="1.0" xmlns="http://www.w3.org/2000/svg"
 width="300.000000pt" height="300.000000pt" viewBox="0 0 300.000000 300.000000"
 preserveAspectRatio="xMidYMid meet">
<metadata>
Created by potrace 1.10, written by Peter Selinger 2001-2011
</metadata>
<g transform="translate(0.000000,300.000000) scale(0.050000,-0.050000)"
fill="#111111" stroke="none">
<path d="M0 3000 l0 -3000 3000 0 3000 0 0 3000 0 3000 -3000 0 -3000 0 0
-3000z m2880 1895 l-1 -545 -560 -405 -560 -406 -510 166 c-315 102 -506 174
-501 187 22 56 801 1113 830 1124 47 20 1269 420 1287 422 8 1 15 -243 15
-543z m926 326 c338 -110 624 -205 634 -211 24 -15 796 -1075 810 -1114 8 -20
-119 -69 -499 -192 l-509 -164 -560 405 -561 405 0 546 c-1 512 1 546 34 535
19 -6 312 -100 651 -210z m-272 -1445 c292 -211 534 -394 539 -407 5 -14 -82
-305 -193 -647 l-203 -622 -676 0 -677 0 -151 465 c-250 770 -258 798 -236
820 23 23 1050 773 1060 774 4 1 245 -172 537 -383z m-2355 -283 l510 -167
216 -663 217 -664 -314 -430 c-172 -237 -321 -428 -330 -425 -10 3 -197 254
-417 556 l-400 550 -1 705 c0 388 2 705 5 705 3 -1 234 -76 514 -167z m4161
-538 l-1 -705 -400 -550 c-220 -302 -408 -553 -418 -556 -9 -3 -157 188 -329
426 l-313 432 216 662 216 662 499 165 c275 91 507 166 515 167 8 1 15 -315
15 -703z m-1390 -1430 c132 -184 273 -380 314 -436 l73 -102 -668 -216 -667
-216 -643 207 c-353 114 -652 214 -664 221 -21 13 93 182 469 692 l136 185
705 -1 705 -1 240 -333z"/>
<path d="M2840 3553 c-106 -44 -110 -48 -116 -129 -7 -97 -8 -97 131 -44 l105
40 0 -330 0 -330 -120 0 -120 0 0 -80 0 -80 320 0 320 0 0 80 0 80 -100 0
-100 0 -2 305 c-1 168 -3 355 -5 415 l-3 110 -100 5 c-67 3 -136 -11 -210 -42z"/>
</g>
</svg>
