<?xml version="1.0" standalone="no"?>
<!DOCTYPE svg PUBLIC "-//W3C//DTD SVG 20010904//EN"
 "http://www.w3.org/TR/2001/REC-SVG-20010904/DTD/svg10.dtd">
<svg version="1.0" xmlns="http://www.w3.org/2000/svg"
 width="300.000000pt" height="300.000000pt" viewBox="0 0 300.000000 300.000000"
 preserveAspectRatio="xMidYMid meet">
<metadata>
Created by potrace 1.10, written by Peter Selinger 2001-2011
</metadata>
<g transform="translate(0.000000,300.000000) scale(0.100000,-0.100000)"
fill="#111111" stroke="none">
<path d="M0 1500 l0 -1500 1500 0 1500 0 0 1500 0 1500 -1500 0 -1500 0 0
-1500z m1440 948 l0 -273 -281 -203 -280 -202 -254 82 c-158 51 -254 87 -251
94 11 28 401 556 415 562 23 10 635 210 644 211 4 1 7 -122 7 -271z m463 162
c169 -54 312 -102 317 -105 12 -8 398 -538 405 -557 4 -10 -59 -34 -249 -96
l-255 -82 -280 202 -280 203 -1 273 c0 256 1 273 18 268 9 -3 155 -51 325
-106z m-136 -722 c146 -105 267 -197 270 -204 2 -6 -41 -152 -97 -323 l-101
-311 -339 0 -338 0 -75 233 c-125 385 -129 399 -119 409 12 12 525 387 530
388 2 0 123 -86 269 -192z m-1177 -142 l254 -83 109 -332 108 -331 -157 -216
c-86 -118 -160 -214 -165 -212 -5 2 -99 127 -209 278 l-200 275 0 353 c0 193
1 352 3 352 1 0 117 -38 257 -84z m2080 -268 l0 -353 -201 -275 c-110 -151
-204 -276 -208 -278 -5 -2 -79 94 -165 213 l-156 216 108 331 107 331 250 83
c138 45 253 82 258 83 4 1 7 -158 7 -351z m-695 -716 c66 -91 137 -189 157
-217 l37 -51 -334 -109 -334 -108 -321 104 c-177 57 -327 107 -333 111 -10 6
47 90 235 346 l68 92 353 -1 352 0 120 -167z"/>
<path d="M1605 1751 c-22 -10 -50 -29 -62 -42 l-22 -24 29 -32 c25 -27 30 -30
41 -17 35 42 123 58 153 28 21 -20 21 -86 0 -127 -24 -47 -82 -104 -147 -144
l-58 -35 3 -47 3 -46 168 -3 167 -2 0 45 0 45 -96 0 -96 0 70 68 c51 50 73 80
85 116 34 99 13 186 -53 218 -46 24 -133 23 -185 -1z"/>
<path d="M1180 1742 c-44 -17 -45 -19 -48 -64 l-3 -46 51 19 c27 10 55 19 60
19 7 0 10 -58 8 -162 l-3 -163 -61 -3 -62 -3 2 -37 1 -37 163 -3 162 -2 0 39
0 40 -52 3 -53 3 -3 208 -2 207 -58 -1 c-31 0 -77 -8 -102 -17z"/>
</g>
</svg>
