<?xml version="1.0" standalone="no"?>
<!DOCTYPE svg PUBLIC "-//W3C//DTD SVG 20010904//EN"
 "http://www.w3.org/TR/2001/REC-SVG-20010904/DTD/svg10.dtd">
<svg version="1.0" xmlns="http://www.w3.org/2000/svg"
 width="300.000000pt" height="300.000000pt" viewBox="0 0 300.000000 300.000000"
 preserveAspectRatio="xMidYMid meet">
<metadata>
Created by potrace 1.10, written by Peter Selinger 2001-2011
</metadata>
<g transform="translate(0.000000,300.000000) scale(0.100000,-0.100000)"
fill="#eeeeee" stroke="none">
<path d="M1378 2900 c-398 -37 -765 -241 -1003 -558 -271 -362 -350 -848 -209
-1281 188 -575 726 -964 1334 -963 235 0 443 50 650 158 606 315 897 1029 685
1680 -88 270 -267 519 -493 689 -268 201 -633 305 -964 275z m487 -435 c201
-67 350 -213 427 -417 29 -77 32 -93 32 -213 1 -112 -2 -140 -23 -204 -62
-187 -219 -336 -408 -387 -76 -20 -231 -20 -308 1 -190 49 -353 182 -438 355
-98 199 -100 396 -7 580 78 154 222 266 395 306 91 21 232 12 330 -21z"/>
<path d="M1580 2341 c-47 -15 -111 -52 -152 -89 -131 -118 -113 -323 35 -397
28 -14 61 -25 74 -25 27 0 27 3 8 -50 -34 -95 -5 -201 72 -271 53 -48 99 -62
187 -57 94 4 189 49 267 127 122 122 118 301 -9 398 -43 32 -141 61 -163 47
-9 -5 -10 0 -5 17 37 122 -10 235 -117 285 -54 25 -142 31 -197 15z m133 -139
c39 -24 70 -91 61 -137 -13 -72 -85 -129 -162 -127 -115 1 -171 139 -94 230
49 59 128 72 195 34z m221 -320 c16 -10 37 -33 47 -52 56 -104 -31 -235 -157
-235 -152 0 -200 194 -68 275 68 42 118 46 178 12z"/>
</g>
</svg>
