<?xml version="1.0" standalone="no"?>
<!DOCTYPE svg PUBLIC "-//W3C//DTD SVG 20010904//EN"
 "http://www.w3.org/TR/2001/REC-SVG-20010904/DTD/svg10.dtd">
<svg version="1.0" xmlns="http://www.w3.org/2000/svg"
 width="300.000000pt" height="300.000000pt" viewBox="0 0 300.000000 300.000000"
 preserveAspectRatio="xMidYMid meet">
<metadata>
Created by potrace 1.10, written by Peter Selinger 2001-2011
</metadata>
<g transform="translate(0.000000,300.000000) scale(0.100000,-0.100000)"
fill="#eeeeee" stroke="none">
<path d="M861 2636 c-46 -25 -50 -48 -51 -253 l0 -193 -190 0 c-125 0 -198 -4
-215 -12 -47 -21 -55 -52 -55 -222 l0 -156 29 -32 29 -33 201 -3 201 -3 0
-229 0 -229 -201 -3 -201 -3 -29 -33 -29 -32 0 -156 c0 -170 8 -201 55 -222
17 -8 90 -12 215 -12 l190 0 0 -190 c0 -274 -3 -270 235 -270 l155 0 32 29 33
29 3 201 3 201 229 0 229 0 3 -201 3 -201 33 -29 32 -29 155 0 c238 0 235 -4
235 270 l0 190 190 0 c125 0 198 4 215 12 47 21 55 52 55 222 l0 156 -29 32
-29 33 -201 3 -201 3 0 229 0 229 201 3 201 3 29 33 29 32 0 155 c0 238 4 235
-270 235 l-190 0 0 190 c0 274 3 270 -235 270 l-155 0 -32 -29 -33 -29 -3
-201 -3 -201 -229 0 -229 0 -3 201 -3 201 -33 29 -32 29 -158 0 c-111 -1 -164
-5 -181 -14z m869 -1136 l0 -230 -230 0 -230 0 0 230 0 230 230 0 230 0 0
-230z"/>
</g>
</svg>
