<?xml version="1.0" standalone="no"?>
<!DOCTYPE svg PUBLIC "-//W3C//DTD SVG 20010904//EN"
 "http://www.w3.org/TR/2001/REC-SVG-20010904/DTD/svg10.dtd">
<svg version="1.0" xmlns="http://www.w3.org/2000/svg"
 width="300.000000pt" height="299.000000pt" viewBox="0 0 300.000000 299.000000"
 preserveAspectRatio="xMidYMid meet">
<metadata>
Created by potrace 1.10, written by Peter Selinger 2001-2011
</metadata>
<g transform="translate(0.000000,299.000000) scale(0.100000,-0.100000)"
fill="#111111" stroke="none">
<path d="M0 1495 l0 -1495 1500 0 1500 0 0 1495 0 1495 -1500 0 -1500 0 0
-1495z m1826 1392 c536 -137 936 -550 1055 -1092 45 -205 34 -480 -27 -691
-27 -93 -116 -290 -162 -359 -229 -343 -547 -560 -934 -636 -144 -29 -375 -31
-518 -5 -208 37 -432 136 -604 266 -274 206 -461 501 -539 850 -29 129 -31
422 -4 550 122 579 545 1006 1117 1129 83 18 122 20 305 17 185 -3 222 -7 311
-29z m-1789 -1289 c-3 -8 -6 -5 -6 6 -1 11 2 17 5 13 3 -3 4 -12 1 -19z m2910
-45 c-4 -3 -7 0 -7 7 0 7 3 10 7 7 3 -4 3 -10 0 -14z m0 -95 c-3 -7 -5 -2 -5
12 0 14 2 19 5 13 2 -7 2 -19 0 -25z m-2910 -60 c-3 -7 -5 -2 -5 12 0 14 2 19
5 13 2 -7 2 -19 0 -25z m404 -905 c13 -16 12 -17 -3 -4 -17 13 -22 21 -14 21
2 0 10 -8 17 -17z m2089 -16 c0 -2 -10 -12 -22 -23 l-23 -19 19 23 c18 21 26
27 26 19z m-2035 -37 c3 -5 4 -10 1 -10 -3 0 -8 5 -11 10 -3 6 -4 10 -1 10 3
0 8 -4 11 -10z"/>
<path d="M1360 2185 c-368 -60 -646 -344 -701 -716 -54 -374 166 -750 523
-892 96 -39 195 -57 308 -57 158 0 295 37 435 118 75 44 239 208 284 284 123
211 153 463 81 689 -125 391 -529 640 -930 574z m695 -255 c10 -11 16 -20 13
-20 -3 0 -13 9 -23 20 -10 11 -16 20 -13 20 3 0 13 -9 23 -20z m-1115 7 c0 -2
-10 -12 -22 -23 l-23 -19 19 23 c18 21 26 27 26 19z m-80 -91 c0 -3 -5 -8 -12
-12 -7 -4 -8 -3 -4 4 7 12 16 16 16 8z m1166 -199 c18 -16 27 -34 27 -54 0
-43 -496 -839 -536 -859 -41 -22 -91 -3 -121 44 -168 260 -496 799 -496 814 0
11 13 33 29 49 l29 29 521 0 520 0 27 -23z m261 -324 c-2 -16 -4 -5 -4 22 0
28 2 40 4 28 2 -13 2 -35 0 -50z m-487 -247 c0 -3 -5 -8 -12 -12 -7 -4 -8 -3
-4 4 7 12 16 16 16 8z m-313 -392 c-3 -3 -12 -4 -19 -1 -8 3 -5 6 6 6 11 1 17
-2 13 -5z"/>
</g>
</svg>
