<?xml version="1.0" standalone="no"?>
<!DOCTYPE svg PUBLIC "-//W3C//DTD SVG 20010904//EN"
 "http://www.w3.org/TR/2001/REC-SVG-20010904/DTD/svg10.dtd">
<svg version="1.0" xmlns="http://www.w3.org/2000/svg"
 width="300.000000pt" height="71.000000pt" viewBox="0 0 300.000000 71.000000"
 preserveAspectRatio="xMidYMid meet">
<metadata>
Created by potrace 1.10, written by Peter Selinger 2001-2011
</metadata>
<g transform="translate(0.000000,71.000000) scale(0.100000,-0.100000)"
fill="#111111" stroke="none">
<path d="M0 355 l0 -355 1500 0 1500 0 0 355 0 355 -1500 0 -1500 0 0 -355z
m634 299 c14 -13 16 -54 16 -291 0 -243 -2 -279 -17 -295 -15 -17 -37 -18
-287 -18 -230 0 -275 2 -294 16 -22 15 -22 17 -22 294 0 240 2 281 16 294 13
14 54 16 294 16 240 0 281 -2 294 -16z m406 -304 l0 -270 -87 0 c-97 0 -136
15 -170 67 -25 38 -25 203 -1 249 22 40 73 64 137 64 l51 0 0 45 c0 43 -1 45
-30 45 -28 0 -30 3 -30 35 l0 35 65 0 65 0 0 -270z m198 233 c-3 -35 -6 -38
-35 -41 -32 -3 -33 -2 -33 37 0 40 1 41 36 41 35 0 35 -1 32 -37z m1502 -233
l0 -270 -35 0 -35 0 0 235 0 235 -25 0 c-22 0 -25 4 -25 35 l0 35 60 0 60 0 0
-270z m190 0 l0 -270 -35 0 -35 0 0 235 0 235 -30 0 c-28 0 -30 3 -30 35 l0
35 65 0 65 0 0 -270z m-1362 93 c45 -33 50 -51 22 -73 -24 -18 -25 -18 -53 6
-32 27 -48 29 -80 13 -34 -18 -37 -28 -37 -121 0 -82 1 -88 26 -107 35 -27 56
-26 91 3 28 24 29 24 53 6 20 -16 23 -23 14 -37 -49 -79 -189 -75 -238 7 -22
39 -23 218 0 261 32 63 143 86 202 42z m318 2 c45 -29 64 -73 64 -147 l0 -68
-105 0 c-98 0 -105 -1 -105 -20 0 -42 34 -60 115 -60 l75 0 0 -35 0 -35 -77 0
c-148 0 -186 43 -181 202 2 79 7 102 24 125 45 61 129 78 190 38z m354 -15 c0
-38 -2 -40 -30 -40 -17 0 -44 -7 -60 -15 l-30 -16 0 -104 0 -105 35 0 c33 0
35 -2 35 -35 l0 -35 -105 0 -105 0 0 35 c0 33 2 35 35 35 l35 0 0 120 0 120
-25 0 c-22 0 -25 4 -25 35 l0 35 60 0 c47 0 60 -3 60 -15 0 -12 6 -12 37 5 21
11 48 20 60 20 20 0 23 -5 23 -40z m270 12 c44 -32 60 -78 60 -172 0 -133 -43
-194 -137 -194 -112 1 -158 67 -151 215 4 76 8 92 31 123 15 19 42 40 60 45
42 13 106 5 137 -17z m-1270 -137 l0 -155 35 0 c33 0 35 -2 35 -35 l0 -35
-105 0 -105 0 0 35 c0 33 2 35 35 35 l35 0 0 120 0 120 -30 0 c-28 0 -30 3
-30 35 l0 35 65 0 65 0 0 -155z"/>
<path d="M102 600 c-31 -29 -29 -73 4 -99 15 -12 34 -21 44 -21 31 0 70 39 70
71 0 61 -73 91 -118 49z"/>
<path d="M482 600 c-12 -12 -22 -32 -22 -46 0 -29 41 -74 68 -74 33 0 72 38
72 71 0 61 -73 91 -118 49z"/>
<path d="M290 410 c-29 -29 -26 -74 6 -99 34 -26 54 -26 88 0 50 40 21 119
-44 119 -17 0 -39 -9 -50 -20z"/>
<path d="M100 220 c-27 -27 -25 -66 5 -95 30 -30 54 -31 89 -4 50 40 21 119
-44 119 -17 0 -39 -9 -50 -20z"/>
<path d="M480 220 c-27 -27 -25 -66 5 -95 30 -30 54 -31 89 -4 50 40 21 119
-44 119 -17 0 -39 -9 -50 -20z"/>
<path d="M854 369 c-15 -17 -19 -36 -19 -99 0 -99 15 -120 87 -120 l48 0 0
120 0 120 -48 0 c-37 0 -54 -5 -68 -21z"/>
<path d="M1765 375 c-14 -13 -25 -36 -25 -50 0 -24 2 -25 70 -25 l70 0 0 29
c0 20 -9 36 -26 50 -35 27 -59 26 -89 -4z"/>
<path d="M2392 390 c-32 -13 -44 -54 -40 -137 4 -85 19 -107 74 -107 57 0 74
29 74 126 0 70 -3 82 -25 103 -25 26 -45 30 -83 15z"/>
</g>
</svg>
