<?xml version="1.0" standalone="no"?>
<!DOCTYPE svg PUBLIC "-//W3C//DTD SVG 20010904//EN"
 "http://www.w3.org/TR/2001/REC-SVG-20010904/DTD/svg10.dtd">
<svg version="1.0" xmlns="http://www.w3.org/2000/svg"
 width="300.000000pt" height="71.000000pt" viewBox="0 0 300.000000 71.000000"
 preserveAspectRatio="xMidYMid meet">
<metadata>
Created by potrace 1.10, written by Peter Selinger 2001-2011
</metadata>
<g transform="translate(0.000000,71.000000) scale(0.100000,-0.100000)"
fill="#eeeeee" stroke="none">
<path d="M27 682 l-27 -28 0 -295 0 -294 37 -25 c36 -25 38 -25 294 -28 377
-5 354 -27 353 354 l0 272 -28 36 -27 36 -288 0 -287 0 -27 -28z m603 -29 c13
-12 15 -58 15 -293 0 -216 -3 -282 -13 -292 -19 -19 -562 -19 -585 1 -15 12
-17 45 -17 296 0 221 3 285 13 293 29 24 561 20 587 -5z"/>
<path d="M101 601 c-32 -32 -27 -75 10 -102 29 -20 34 -21 58 -8 14 8 32 27
41 41 13 25 13 29 -6 55 -27 36 -75 42 -103 14z m63 -38 c8 -21 -14 -36 -31
-21 -10 8 -10 14 -2 24 15 19 25 18 33 -3z"/>
<path d="M480 600 c-27 -27 -25 -62 6 -94 34 -33 49 -33 85 3 34 35 36 49 8
85 -25 32 -70 35 -99 6z m62 -62 c-16 -16 -37 4 -28 28 6 16 8 16 23 1 13 -13
15 -19 5 -29z"/>
<path d="M292 414 c-33 -23 -27 -79 11 -108 26 -19 30 -19 55 -6 14 9 33 28
42 42 13 25 13 29 -6 55 -25 33 -69 41 -102 17z m68 -41 c0 -17 -19 -35 -29
-29 -18 12 -12 36 9 36 11 0 20 -3 20 -7z"/>
<path d="M102 224 c-30 -21 -29 -68 3 -99 32 -32 50 -31 86 4 34 35 36 49 8
85 -24 30 -63 34 -97 10z m63 -54 c0 -22 -29 -18 -33 3 -3 14 1 18 15 15 10
-2 18 -10 18 -18z"/>
<path d="M482 224 c-30 -21 -29 -68 3 -99 32 -32 50 -31 86 4 34 35 36 49 8
85 -24 30 -63 34 -97 10z m63 -54 c0 -22 -29 -18 -33 3 -3 14 1 18 15 15 10
-2 18 -10 18 -18z"/>
<path d="M886 638 c-20 -28 -20 -67 -1 -92 23 -31 18 -43 -22 -51 -47 -8 -97
-46 -120 -88 -25 -45 -25 -219 -1 -263 23 -43 71 -81 116 -94 57 -16 159 -13
187 6 22 14 26 14 47 0 16 -12 46 -16 111 -16 80 0 92 2 119 25 l29 25 43 -25
c77 -45 174 -28 229 41 l19 25 38 -35 c21 -19 56 -39 77 -45 52 -15 149 -14
173 1 16 10 24 10 40 0 12 -7 56 -12 113 -12 86 0 95 2 117 24 33 36 29 74
-10 109 -30 27 -32 33 -31 90 1 69 10 83 51 89 l30 5 0 -76 c1 -101 24 -165
73 -205 35 -28 45 -31 110 -31 87 0 124 21 158 92 32 66 33 197 2 264 -32 71
-72 94 -163 94 -63 0 -80 -4 -104 -23 l-29 -23 -33 32 c-31 30 -35 31 -73 22
-21 -6 -70 -8 -108 -6 -68 5 -70 5 -97 -27 l-27 -33 -24 23 c-67 63 -203 55
-250 -16 -20 -31 -38 -30 -59 1 -50 76 -193 78 -263 3 -33 -36 -43 -72 -43
-163 0 -79 -10 -110 -26 -84 -4 6 -8 68 -10 138 -2 116 -4 127 -25 144 l-22
18 21 29 c28 38 28 83 0 110 -66 61 -155 -33 -102 -108 19 -28 19 -28 -27 -36
l-37 -6 -4 64 c-6 91 -21 106 -109 106 -59 0 -70 -3 -83 -22z m154 -287 l0
-273 -94 4 c-144 6 -177 37 -184 172 -7 147 28 197 144 204 l65 4 -3 42 c-3
36 -6 41 -30 44 -20 2 -30 10 -34 28 -11 42 -1 49 70 49 l66 0 0 -274z m200
245 c0 -29 -24 -56 -51 -56 -16 0 -19 7 -19 40 0 39 1 40 35 40 30 0 35 -3 35
-24z m998 -170 c-2 -25 -8 -32 -28 -34 -14 -2 -40 -8 -57 -13 l-33 -11 0 -108
0 -109 33 -3 c28 -3 32 -7 35 -36 l3 -32 -105 0 -106 0 0 35 c0 33 2 35 35 35
l35 0 0 120 0 120 -25 0 c-25 0 -27 4 -25 68 0 10 102 2 116 -9 7 -6 28 -2 55
10 52 24 72 14 67 -33z m-1003 -120 l0 -155 35 -3 c31 -3 35 -6 38 -35 l3 -33
-105 0 -106 0 0 35 c0 33 2 35 35 35 l35 0 0 120 0 120 -29 0 c-26 0 -29 4
-33 35 -2 20 -3 37 -2 38 1 1 31 1 66 0 l63 -1 0 -156z m309 150 c18 -8 41
-24 49 -37 15 -21 15 -24 0 -41 -20 -23 -32 -22 -63 2 -31 24 -61 25 -89 3
-20 -17 -22 -26 -19 -112 3 -89 4 -95 30 -114 29 -22 44 -19 94 18 18 14 22
13 42 -5 26 -25 20 -43 -23 -70 -43 -26 -119 -27 -159 -1 -48 32 -55 56 -56
177 0 99 2 114 22 139 40 51 109 67 172 41z m333 -6 c44 -26 65 -72 71 -152
l5 -68 -107 0 -106 0 0 -26 c0 -33 49 -54 130 -54 l60 0 0 -36 0 -36 -89 4
c-146 7 -175 42 -169 209 2 80 7 101 23 119 53 60 124 76 182 40z m629 -5 c43
-28 58 -72 58 -170 0 -144 -37 -195 -141 -195 -60 0 -104 26 -126 73 -22 45
-23 196 -3 235 15 29 52 66 76 76 25 9 111 -2 136 -19z m-1384 -105 c2 -8 3
-43 3 -78 -1 -59 -11 -81 -37 -82 -5 0 -8 45 -8 100 0 97 1 100 19 88 11 -7
21 -19 23 -28z m404 -1 c9 -15 66 -10 86 8 17 15 18 13 18 -70 0 -86 -6 -101
-30 -72 -16 19 -44 19 -75 -1 -14 -9 -33 -13 -45 -9 -17 6 -20 15 -20 74 0 37
5 72 11 78 11 11 46 6 55 -8z m475 -67 c2 -61 -1 -75 -17 -87 -44 -34 -60 -6
-19 34 21 19 25 32 25 79 0 80 9 59 11 -26z"/>
<path d="M856 375 c-21 -21 -30 -76 -23 -138 8 -65 32 -87 93 -87 l44 0 0 120
0 120 -49 0 c-31 0 -55 -6 -65 -15z m65 -27 c6 -27 10 -105 5 -123 -9 -34 -43
-34 -52 1 -9 35 2 105 18 115 13 8 27 12 29 7z"/>
<path d="M1761 374 c-12 -15 -21 -37 -21 -50 0 -23 3 -24 71 -24 l72 0 -7 33
c-12 65 -78 88 -115 41z"/>
<path d="M2375 375 c-22 -21 -25 -33 -25 -97 0 -97 14 -122 66 -126 61 -5 77
19 78 117 1 71 -2 82 -23 105 -31 33 -65 33 -96 1z m79 -75 c6 -50 -5 -101
-22 -107 -24 -10 -42 26 -42 83 0 91 54 111 64 24z"/>
<path d="M2597 642 c-24 -27 -21 -73 8 -112 24 -33 24 -35 23 -238 l-2 -205
28 -23 c35 -31 67 -30 97 2 24 25 24 28 27 246 3 217 3 220 23 203 18 -17 19
-33 19 -225 0 -203 0 -207 23 -228 31 -29 68 -28 98 4 l24 26 0 263 c0 313 3
305 -102 305 -35 0 -72 -6 -83 -12 -15 -10 -22 -10 -32 0 -7 7 -38 12 -73 12
-47 0 -66 -4 -78 -18z m141 -291 l2 -272 -36 3 -36 3 2 233 1 232 -25 0 c-19
0 -27 7 -32 25 -11 43 -1 50 62 49 l59 -2 3 -271z m192 2 l0 -273 -37 0 -38 0
3 235 4 235 -31 0 c-24 0 -32 5 -37 25 -11 43 -1 50 70 50 l66 0 0 -272z"/>
</g>
</svg>
